<svg width="1512" height="217" viewBox="0 0 1512 217" fill="none" xmlns="http://www.w3.org/2000/svg">
<path d="M0 7.15668L31.584 4.45251C63.336 1.74835 126.504 -3.66 189.504 4.23617C252.504 12.2405 315.336 33.4412 378.336 49.6662C441.336 65.8912 504.504 77.1405 567.504 84.4959C630.504 91.8512 693.336 95.5288 756.336 98.3412C819.336 101.262 882.504 103.425 945.504 83.955C1008.5 64.485 1071.34 23.3817 1134.34 8.77918C1197.34 -5.82332 1260.5 6.075 1323.5 24.7878C1386.5 43.6088 1449.34 69.1362 1480.58 82.008L1512 94.7717V218.082H1480.58C1449.34 218.082 1386.5 218.082 1323.5 218.082C1260.5 218.082 1197.34 218.082 1134.34 218.082C1071.34 218.082 1008.5 218.082 945.504 218.082C882.504 218.082 819.336 218.082 756.336 218.082C693.336 218.082 630.504 218.082 567.504 218.082C504.504 218.082 441.336 218.082 378.336 218.082C315.336 218.082 252.504 218.082 189.504 218.082C126.504 218.082 63.336 218.082 31.584 218.082H0V7.15668Z" fill="#DF6142" fill-opacity="0.77"/>
<path d="M0 49.3416L31.584 56.0479C63.336 62.6461 126.504 76.0587 189.504 70.4341C252.504 64.8094 315.336 40.3637 378.336 46.3129C441.336 52.2621 504.504 88.6061 567.504 100.721C630.504 112.835 693.336 100.504 756.336 97.1513C819.336 93.6899 882.504 99.0982 945.504 88.2816C1008.5 77.4649 1071.34 50.4232 1134.34 36.0371C1197.34 21.5427 1260.5 19.8121 1323.5 23.1652C1386.5 26.6266 1449.34 35.2799 1480.58 39.6066L1512 43.9332V218.082H1480.58C1449.34 218.082 1386.5 218.082 1323.5 218.082C1260.5 218.082 1197.34 218.082 1134.34 218.082C1071.34 218.082 1008.5 218.082 945.504 218.082C882.504 218.082 819.336 218.082 756.336 218.082C693.336 218.082 630.504 218.082 567.504 218.082C504.504 218.082 441.336 218.082 378.336 218.082C315.336 218.082 252.504 218.082 189.504 218.082C126.504 218.082 63.336 218.082 31.584 218.082H0V49.3416Z" fill="#DF6142" fill-opacity="0.78"/>
<path d="M0 76.3833L31.584 85.0367C63.336 93.69 126.504 110.997 189.504 105.805C252.504 100.505 315.336 72.8138 378.336 69.677C441.336 66.6483 504.504 88.2817 567.504 88.8225C630.504 89.3633 693.336 68.8117 756.336 63.0788C819.336 57.2378 882.504 66.3238 945.504 71.1913C1008.5 76.0588 1071.34 76.7078 1134.34 78.0058C1197.34 79.3038 1260.5 81.0345 1323.5 77.2487C1386.5 73.4628 1449.34 64.1605 1480.58 59.4012L1512 54.75V218.082H1480.58C1449.34 218.082 1386.5 218.082 1323.5 218.082C1260.5 218.082 1197.34 218.082 1134.34 218.082C1071.34 218.082 1008.5 218.082 945.504 218.082C882.504 218.082 819.336 218.082 756.336 218.082C693.336 218.082 630.504 218.082 567.504 218.082C504.504 218.082 441.336 218.082 378.336 218.082C315.336 218.082 252.504 218.082 189.504 218.082C126.504 218.082 63.336 218.082 31.584 218.082H0V76.3833Z" fill="#FFD370" fill-opacity="0.7"/>
<path d="M0 94.7718L31.584 104.29C63.336 113.917 126.504 132.955 189.504 133.495C252.504 134.036 315.336 116.081 378.336 108.509C441.336 100.937 504.504 103.75 567.504 110.997C630.504 118.244 693.336 129.71 756.336 129.926C819.336 130.142 882.504 118.893 945.504 113.376C1008.5 107.752 1071.34 107.752 1134.34 114.566C1197.34 121.489 1260.5 135.118 1323.5 129.385C1386.5 123.652 1449.34 98.3413 1480.58 85.7939L1512 73.1384V218.082H1480.58C1449.34 218.082 1386.5 218.082 1323.5 218.082C1260.5 218.082 1197.34 218.082 1134.34 218.082C1071.34 218.082 1008.5 218.082 945.504 218.082C882.504 218.082 819.336 218.082 756.336 218.082C693.336 218.082 630.504 218.082 567.504 218.082C504.504 218.082 441.336 218.082 378.336 218.082C315.336 218.082 252.504 218.082 189.504 218.082C126.504 218.082 63.336 218.082 31.584 218.082H0V94.7718Z" fill="#D7CBA6"/>
<path d="M0 167.243L31.584 156.102C63.336 144.853 126.504 122.571 189.504 123.22C252.504 123.977 315.336 147.773 378.336 154.047C441.336 160.429 504.504 149.18 567.504 143.447C630.504 137.714 693.336 137.281 756.336 130.467C819.336 123.652 882.504 110.24 945.504 104.507C1008.5 98.7739 1071.34 100.505 1134.34 110.131C1197.34 119.65 1260.5 136.957 1323.5 139.661C1386.5 142.365 1449.34 130.467 1480.58 124.518L1512 118.568V218.082H1480.58C1449.34 218.082 1386.5 218.082 1323.5 218.082C1260.5 218.082 1197.34 218.082 1134.34 218.082C1071.34 218.082 1008.5 218.082 945.504 218.082C882.504 218.082 819.336 218.082 756.336 218.082C693.336 218.082 630.504 218.082 567.504 218.082C504.504 218.082 441.336 218.082 378.336 218.082C315.336 218.082 252.504 218.082 189.504 218.082C126.504 218.082 63.336 218.082 31.584 218.082H0V167.243Z" fill="#C0CAA2"/>
<path d="M0 132.63L31.584 141.824C63.336 151.018 126.504 169.407 189.504 176.762C252.504 184.225 315.336 180.548 378.336 180.007C441.336 179.466 504.504 182.062 567.504 182.062C630.504 182.062 693.336 179.466 756.336 177.519C819.336 175.572 882.504 174.058 945.504 175.139C1008.5 176.221 1071.34 179.899 1134.34 176.978C1197.34 174.058 1260.5 164.755 1323.5 159.996C1386.5 155.345 1449.34 155.345 1480.58 155.345H1512V218.082H1480.58C1449.34 218.082 1386.5 218.082 1323.5 218.082C1260.5 218.082 1197.34 218.082 1134.34 218.082C1071.34 218.082 1008.5 218.082 945.504 218.082C882.504 218.082 819.336 218.082 756.336 218.082C693.336 218.082 630.504 218.082 567.504 218.082C504.504 218.082 441.336 218.082 378.336 218.082C315.336 218.082 252.504 218.082 189.504 218.082C126.504 218.082 63.336 218.082 31.584 218.082H0V132.63Z" fill="#A6C9A5"/>
<path d="M0 200.775L31.584 196.232C63.336 191.797 126.504 182.711 189.504 180.548C252.504 178.385 315.336 183.144 378.336 183.252C441.336 183.468 504.504 179.142 567.504 174.815C630.504 170.488 693.336 166.162 756.336 171.786C819.336 177.303 882.504 192.879 945.504 195.691C1008.5 198.612 1071.34 188.877 1134.34 180.548C1197.34 172.327 1260.5 165.405 1323.5 170.164C1386.5 174.815 1449.34 191.04 1480.58 199.153L1512 207.265V218.082H1480.58C1449.34 218.082 1386.5 218.082 1323.5 218.082C1260.5 218.082 1197.34 218.082 1134.34 218.082C1071.34 218.082 1008.5 218.082 945.504 218.082C882.504 218.082 819.336 218.082 756.336 218.082C693.336 218.082 630.504 218.082 567.504 218.082C504.504 218.082 441.336 218.082 378.336 218.082C315.336 218.082 252.504 218.082 189.504 218.082C126.504 218.082 63.336 218.082 31.584 218.082H0V200.775Z" fill="#8BC7AE"/>
</svg>
