<svg id="visual" viewBox="0 0 900 600" width="900" height="600" xmlns="http://www.w3.org/2000/svg" xmlns:xlink="http://www.w3.org/1999/xlink" version="1.1"><rect x="0" y="0" width="900" height="600" fill="#f9d3d2"></rect><path d="M0 406L18.8 403.5C37.7 401 75.3 396 112.8 403.3C150.3 410.7 187.7 430.3 225.2 445.3C262.7 460.3 300.3 470.7 337.8 477.5C375.3 484.3 412.7 487.7 450.2 490.3C487.7 493 525.3 495 562.8 477C600.3 459 637.7 421 675.2 407.5C712.7 394 750.3 405 787.8 422.3C825.3 439.7 862.7 463.3 881.3 475.2L900 487L900 601L881.3 601C862.7 601 825.3 601 787.8 601C750.3 601 712.7 601 675.2 601C637.7 601 600.3 601 562.8 601C525.3 601 487.7 601 450.2 601C412.7 601 375.3 601 337.8 601C300.3 601 262.7 601 225.2 601C187.7 601 150.3 601 112.8 601C75.3 601 37.7 601 18.8 601L0 601Z" fill="#f9d3d2"></path><path d="M0 445L18.8 451.2C37.7 457.3 75.3 469.7 112.8 464.5C150.3 459.3 187.7 436.7 225.2 442.2C262.7 447.7 300.3 481.3 337.8 492.5C375.3 503.7 412.7 492.3 450.2 489.2C487.7 486 525.3 491 562.8 481C600.3 471 637.7 446 675.2 432.7C712.7 419.3 750.3 417.7 787.8 420.8C825.3 424 862.7 432 881.3 436L900 440L900 601L881.3 601C862.7 601 825.3 601 787.8 601C750.3 601 712.7 601 675.2 601C637.7 601 600.3 601 562.8 601C525.3 601 487.7 601 450.2 601C412.7 601 375.3 601 337.8 601C300.3 601 262.7 601 225.2 601C187.7 601 150.3 601 112.8 601C75.3 601 37.7 601 18.8 601L0 601Z" fill="#f4cec1"></path><path d="M0 470L18.8 478C37.7 486 75.3 502 112.8 497.2C150.3 492.3 187.7 466.7 225.2 463.8C262.7 461 300.3 481 337.8 481.5C375.3 482 412.7 463 450.2 457.7C487.7 452.3 525.3 460.7 562.8 465.2C600.3 469.7 637.7 470.3 675.2 471.5C712.7 472.7 750.3 474.3 787.8 470.8C825.3 467.3 862.7 458.7 881.3 454.3L900 450L900 601L881.3 601C862.7 601 825.3 601 787.8 601C750.3 601 712.7 601 675.2 601C637.7 601 600.3 601 562.8 601C525.3 601 487.7 601 450.2 601C412.7 601 375.3 601 337.8 601C300.3 601 262.7 601 225.2 601C187.7 601 150.3 601 112.8 601C75.3 601 37.7 601 18.8 601L0 601Z" fill="#e9ccb1"></path><path d="M0 487L18.8 495.8C37.7 504.7 75.3 522.3 112.8 522.8C150.3 523.3 187.7 506.7 225.2 499.7C262.7 492.7 300.3 495.3 337.8 502C375.3 508.7 412.7 519.3 450.2 519.5C487.7 519.7 525.3 509.3 562.8 504.2C600.3 499 637.7 499 675.2 505.3C712.7 511.7 750.3 524.3 787.8 519C825.3 513.7 862.7 490.3 881.3 478.7L900 467L900 601L881.3 601C862.7 601 825.3 601 787.8 601C750.3 601 712.7 601 675.2 601C637.7 601 600.3 601 562.8 601C525.3 601 487.7 601 450.2 601C412.7 601 375.3 601 337.8 601C300.3 601 262.7 601 225.2 601C187.7 601 150.3 601 112.8 601C75.3 601 37.7 601 18.8 601L0 601Z" fill="#d7cba6"></path><path d="M0 554L18.8 543.7C37.7 533.3 75.3 512.7 112.8 513.3C150.3 514 187.7 536 225.2 541.8C262.7 547.7 300.3 537.3 337.8 532C375.3 526.7 412.7 526.3 450.2 520C487.7 513.7 525.3 501.3 562.8 496C600.3 490.7 637.7 492.3 675.2 501.2C712.7 510 750.3 526 787.8 528.5C825.3 531 862.7 520 881.3 514.5L900 509L900 601L881.3 601C862.7 601 825.3 601 787.8 601C750.3 601 712.7 601 675.2 601C637.7 601 600.3 601 562.8 601C525.3 601 487.7 601 450.2 601C412.7 601 375.3 601 337.8 601C300.3 601 262.7 601 225.2 601C187.7 601 150.3 601 112.8 601C75.3 601 37.7 601 18.8 601L0 601Z" fill="#c0caa2"></path><path d="M0 522L18.8 530.5C37.7 539 75.3 556 112.8 562.8C150.3 569.7 187.7 566.3 225.2 565.8C262.7 565.3 300.3 567.7 337.8 567.7C375.3 567.7 412.7 565.3 450.2 563.5C487.7 561.7 525.3 560.3 562.8 561.3C600.3 562.3 637.7 565.7 675.2 563C712.7 560.3 750.3 551.7 787.8 547.3C825.3 543 862.7 543 881.3 543L900 543L900 601L881.3 601C862.7 601 825.3 601 787.8 601C750.3 601 712.7 601 675.2 601C637.7 601 600.3 601 562.8 601C525.3 601 487.7 601 450.2 601C412.7 601 375.3 601 337.8 601C300.3 601 262.7 601 225.2 601C187.7 601 150.3 601 112.8 601C75.3 601 37.7 601 18.8 601L0 601Z" fill="#a6c9a5"></path><path d="M0 585L18.8 580.8C37.7 576.7 75.3 568.3 112.8 566.3C150.3 564.3 187.7 568.7 225.2 568.8C262.7 569 300.3 565 337.8 561C375.3 557 412.7 553 450.2 558.2C487.7 563.3 525.3 577.7 562.8 580.3C600.3 583 637.7 574 675.2 566.3C712.7 558.7 750.3 552.3 787.8 556.7C825.3 561 862.7 576 881.3 583.5L900 591L900 601L881.3 601C862.7 601 825.3 601 787.8 601C750.3 601 712.7 601 675.2 601C637.7 601 600.3 601 562.8 601C525.3 601 487.7 601 450.2 601C412.7 601 375.3 601 337.8 601C300.3 601 262.7 601 225.2 601C187.7 601 150.3 601 112.8 601C75.3 601 37.7 601 18.8 601L0 601Z" fill="#8bc7ae"></path></svg>